<svg width="25" height="25" viewBox="0 0 25 25" fill="none" xmlns="http://www.w3.org/2000/svg">
<path d="M5.89258 12.9192C5.32605 11.5961 5.01758 10.1874 5.01758 8.86094C5.01758 5.26301 8.15159 2.34631 12.0176 2.34631C15.8836 2.34631 19.0176 5.26301 19.0176 8.86094C19.0176 12.4307 16.7834 16.5962 13.2977 18.0859C12.4851 18.4331 11.5501 18.4331 10.7375 18.0859C9.62422 17.6101 8.6386 16.8614 7.81266 15.9463" stroke="#E7D393" stroke-width="1.5" stroke-linecap="round"/>
<path d="M14.0176 9.34631C14.0176 10.4509 13.1222 11.3463 12.0176 11.3463C10.913 11.3463 10.0176 10.4509 10.0176 9.34631C10.0176 8.24174 10.913 7.34631 12.0176 7.34631C13.1222 7.34631 14.0176 8.24174 14.0176 9.34631Z" stroke="#E7D393" stroke-width="1.5"/>
<path d="M20.9781 15.8463C21.6435 16.4488 22.0176 17.1279 22.0176 17.8463C22.0176 18.7714 21.3973 19.6313 20.3337 20.3463M3.05705 15.8463C2.3917 16.4488 2.01758 17.1279 2.01758 17.8463C2.01758 20.3316 6.49473 22.3463 12.0176 22.3463C13.6705 22.3463 15.2298 22.1658 16.6034 21.8463" stroke="#E7D393" stroke-width="1.5" stroke-linecap="round"/>
</svg>
