<svg width="25" height="25" viewBox="0 0 25 25" fill="none" xmlns="http://www.w3.org/2000/svg">
<path d="M21.1881 13.1673C20.6028 10.0462 20.3102 8.48556 19.1993 7.56359C18.0884 6.64163 16.5007 6.64163 13.3251 6.64163H12.6039C9.42834 6.64163 7.84056 6.64163 6.72966 7.56359C5.61876 8.48556 5.32615 10.0462 4.74093 13.1673C3.918 17.5562 3.50654 19.7507 4.70617 21.1961C5.90579 22.6416 8.13849 22.6416 12.6039 22.6416H13.3251C17.7905 22.6416 20.0232 22.6416 21.2228 21.1961C21.9188 20.3575 22.0725 19.2668 21.9182 17.6416" stroke="#E7D393" stroke-width="1.5" stroke-linecap="round"/>
<path d="M9.96484 6.64163V5.64163C9.96484 3.98478 11.3079 2.64163 12.9648 2.64163C14.6217 2.64163 15.9648 3.98478 15.9648 5.64163V6.64163" stroke="#E7D393" stroke-width="1.5" stroke-linecap="round"/>
</svg>
