<svg width="25" height="25" viewBox="0 0 25 25" fill="none" xmlns="http://www.w3.org/2000/svg">
<path d="M12.1328 10.6367L11.6141 11.1784C11.9041 11.4561 12.3615 11.4561 12.6515 11.1784L12.1328 10.6367ZM11.6193 13.7062C11.2014 13.3995 10.7409 13.0166 10.3923 12.6134C10.024 12.1876 9.88281 11.8566 9.88281 11.642H8.38281C8.38281 12.4119 8.82401 13.0932 9.25771 13.5946C9.711 14.1188 10.2719 14.578 10.732 14.9156L11.6193 13.7062ZM9.88281 11.642C9.88281 11.066 10.1454 10.8153 10.3747 10.735C10.625 10.6472 11.0886 10.6752 11.6141 11.1784L12.6515 10.095C11.8271 9.30563 10.7907 8.99967 9.87847 9.31945C8.94526 9.64658 8.38281 10.5449 8.38281 11.642H9.88281ZM13.5336 14.9156C13.9937 14.578 14.5546 14.1188 15.0079 13.5946C15.4416 13.0932 15.8828 12.4119 15.8828 11.642H14.3828C14.3828 11.8566 14.2416 12.1877 13.8733 12.6134C13.5247 13.0166 13.0642 13.3995 12.6463 13.7062L13.5336 14.9156ZM15.8828 11.642C15.8828 10.5449 15.3203 9.64658 14.3871 9.31944C13.4749 8.99967 12.4385 9.30563 11.6141 10.095L12.6515 11.1784C13.177 10.6752 13.6406 10.6472 13.8909 10.7349C14.1202 10.8153 14.3828 11.066 14.3828 11.642H15.8828ZM10.732 14.9156C11.1006 15.186 11.5144 15.5229 12.1328 15.5229V14.0229C12.1084 14.0229 12.0933 14.0228 12.0389 13.9941C11.953 13.9487 11.8456 13.8722 11.6193 13.7062L10.732 14.9156ZM12.6463 13.7062C12.42 13.8722 12.3126 13.9487 12.2267 13.9941C12.1723 14.0228 12.1572 14.0229 12.1328 14.0229V15.5229C12.7512 15.5229 13.165 15.1861 13.5336 14.9156L12.6463 13.7062Z" fill="#E7D393"/>
<path d="M5.13281 15.2256H5.88281C5.88281 14.9275 5.70626 14.6576 5.43309 14.5383L5.13281 15.2256ZM19.1328 15.2256L18.8325 14.5383C18.5593 14.6576 18.3828 14.9275 18.3828 15.2256H19.1328ZM15.8828 7.64163C15.8828 8.05584 16.2186 8.39163 16.6328 8.39163C17.047 8.39163 17.3828 8.05584 17.3828 7.64163H15.8828ZM6.88281 7.64163C6.88281 8.05584 7.2186 8.39163 7.63281 8.39163C8.04702 8.39163 8.38281 8.05584 8.38281 7.64163H6.88281ZM14.1328 21.8916C13.7186 21.8916 13.3828 22.2274 13.3828 22.6416C13.3828 23.0558 13.7186 23.3916 14.1328 23.3916V21.8916ZM10.1328 23.3916C10.547 23.3916 10.8828 23.0558 10.8828 22.6416C10.8828 22.2274 10.547 21.8916 10.1328 21.8916V23.3916ZM7.13281 4.89163C3.95717 4.89163 1.38281 7.46599 1.38281 10.6416H2.88281C2.88281 8.29442 4.7856 6.39163 7.13281 6.39163V4.89163ZM17.1328 6.39163C19.48 6.39163 21.3828 8.29442 21.3828 10.6416H22.8828C22.8828 7.46599 20.3084 4.89163 17.1328 4.89163V6.39163ZM9.13281 21.8916C8.1688 21.8916 7.52124 21.89 7.0382 21.8251C6.57674 21.763 6.37924 21.6558 6.24893 21.5255L5.18827 22.5861C5.64374 23.0416 6.21054 23.2273 6.83833 23.3117C7.44455 23.3932 8.2112 23.3916 9.13281 23.3916V21.8916ZM4.38281 18.6416C4.38281 19.5632 4.38122 20.3299 4.46272 20.9361C4.54713 21.5639 4.7328 22.1307 5.18827 22.5861L6.24893 21.5255C6.11861 21.3952 6.01139 21.1977 5.94935 20.7362C5.8844 20.2532 5.88281 19.6056 5.88281 18.6416H4.38281ZM18.3828 18.6416C18.3828 19.6056 18.3812 20.2532 18.3163 20.7362C18.2542 21.1977 18.147 21.3952 18.0167 21.5255L19.0773 22.5861C19.5328 22.1307 19.7185 21.5639 19.8029 20.9361C19.8844 20.3299 19.8828 19.5632 19.8828 18.6416H18.3828ZM15.1328 23.3916C16.0544 23.3916 16.8211 23.3932 17.4273 23.3117C18.0551 23.2273 18.6219 23.0416 19.0773 22.5861L18.0167 21.5255C17.8864 21.6558 17.6889 21.763 17.2274 21.8251C16.7444 21.89 16.0968 21.8916 15.1328 21.8916V23.3916ZM7.13281 6.39163C7.34651 6.39163 7.55607 6.40734 7.76051 6.43756L7.97984 4.95368C7.70302 4.91277 7.42015 4.89163 7.13281 4.89163V6.39163ZM12.1328 1.89163C9.8223 1.89163 7.86223 3.38373 7.1599 5.45475L8.58044 5.93649C9.08262 4.45565 10.4844 3.39163 12.1328 3.39163V1.89163ZM7.1599 5.45475C6.98003 5.98515 6.88281 6.55281 6.88281 7.14163H8.38281C8.38281 6.71878 8.45251 6.31375 8.58044 5.93649L7.1599 5.45475ZM17.1328 4.89163C16.8455 4.89163 16.5626 4.91277 16.2858 4.95368L16.5051 6.43756C16.7095 6.40734 16.9191 6.39163 17.1328 6.39163V4.89163ZM12.1328 3.39163C13.7812 3.39163 15.183 4.45565 15.6852 5.93649L17.1057 5.45475C16.4034 3.38373 14.4433 1.89163 12.1328 1.89163V3.39163ZM15.6852 5.93649C15.8131 6.31375 15.8828 6.71878 15.8828 7.14163H17.3828C17.3828 6.55281 17.2856 5.98515 17.1057 5.45475L15.6852 5.93649ZM5.88281 18.6416V15.2256H4.38281V18.6416H5.88281ZM5.43309 14.5383C3.9305 13.8818 2.88281 12.3832 2.88281 10.6416H1.38281C1.38281 13.0006 2.80331 15.0262 4.83253 15.9128L5.43309 14.5383ZM18.3828 15.2256V18.6416H19.8828V15.2256H18.3828ZM21.3828 10.6416C21.3828 12.3832 20.3351 13.8818 18.8325 14.5383L19.4331 15.9128C21.4623 15.0262 22.8828 13.0006 22.8828 10.6416H21.3828ZM15.8828 7.14163V7.64163H17.3828V7.14163H15.8828ZM6.88281 7.14163V7.64163H8.38281V7.14163H6.88281ZM15.1328 21.8916H14.1328V23.3916H15.1328V21.8916ZM10.1328 21.8916H9.13281V23.3916H10.1328V21.8916Z" fill="#E7D393"/>
<path d="M5.13281 18.6416H13.1328M19.1328 18.6416H17.1328" stroke="#E7D393" stroke-width="1.5" stroke-linecap="round" stroke-linejoin="round"/>
</svg>
