<svg width="25" height="24" viewBox="0 0 25 24" fill="none" xmlns="http://www.w3.org/2000/svg">
<path d="M5.13281 14.584H5.88281C5.88281 14.2859 5.70626 14.016 5.43309 13.8967L5.13281 14.584ZM19.1328 14.584L18.8325 13.8967C18.5593 14.016 18.3828 14.2859 18.3828 14.584H19.1328ZM15.8828 7C15.8828 7.41421 16.2186 7.75 16.6328 7.75C17.047 7.75 17.3828 7.41421 17.3828 7H15.8828ZM6.88281 7C6.88281 7.41421 7.2186 7.75 7.63281 7.75C8.04702 7.75 8.38281 7.41421 8.38281 7H6.88281ZM14.1328 21.25C13.7186 21.25 13.3828 21.5858 13.3828 22C13.3828 22.4142 13.7186 22.75 14.1328 22.75V21.25ZM10.1328 22.75C10.547 22.75 10.8828 22.4142 10.8828 22C10.8828 21.5858 10.547 21.25 10.1328 21.25V22.75ZM7.13281 4.25C3.95717 4.25 1.38281 6.82436 1.38281 10H2.88281C2.88281 7.65279 4.7856 5.75 7.13281 5.75V4.25ZM17.1328 5.75C19.48 5.75 21.3828 7.65279 21.3828 10H22.8828C22.8828 6.82436 20.3084 4.25 17.1328 4.25V5.75ZM9.13281 21.25C8.1688 21.25 7.52124 21.2484 7.0382 21.1835C6.57674 21.1214 6.37924 21.0142 6.24893 20.8839L5.18827 21.9445C5.64374 22.4 6.21054 22.5857 6.83833 22.6701C7.44455 22.7516 8.2112 22.75 9.13281 22.75V21.25ZM4.38281 18C4.38281 18.9216 4.38122 19.6883 4.46272 20.2945C4.54713 20.9223 4.7328 21.4891 5.18827 21.9445L6.24893 20.8839C6.11861 20.7536 6.01139 20.5561 5.94935 20.0946C5.8844 19.6116 5.88281 18.964 5.88281 18H4.38281ZM18.3828 18C18.3828 18.964 18.3812 19.6116 18.3163 20.0946C18.2542 20.5561 18.147 20.7536 18.0167 20.8839L19.0773 21.9445C19.5328 21.4891 19.7185 20.9223 19.8029 20.2945C19.8844 19.6883 19.8828 18.9216 19.8828 18H18.3828ZM15.1328 22.75C16.0544 22.75 16.8211 22.7516 17.4273 22.6701C18.0551 22.5857 18.6219 22.4 19.0773 21.9445L18.0167 20.8839C17.8864 21.0142 17.6889 21.1214 17.2274 21.1835C16.7444 21.2484 16.0968 21.25 15.1328 21.25V22.75ZM7.13281 5.75C7.34651 5.75 7.55607 5.76571 7.76051 5.79593L7.97984 4.31205C7.70302 4.27114 7.42015 4.25 7.13281 4.25V5.75ZM12.1328 1.25C9.8223 1.25 7.86223 2.7421 7.1599 4.81312L8.58044 5.29486C9.08262 3.81402 10.4844 2.75 12.1328 2.75V1.25ZM7.1599 4.81312C6.98003 5.34352 6.88281 5.91118 6.88281 6.5H8.38281C8.38281 6.07715 8.45251 5.67212 8.58044 5.29486L7.1599 4.81312ZM17.1328 4.25C16.8455 4.25 16.5626 4.27114 16.2858 4.31205L16.5051 5.79593C16.7095 5.76571 16.9191 5.75 17.1328 5.75V4.25ZM12.1328 2.75C13.7812 2.75 15.183 3.81402 15.6852 5.29486L17.1057 4.81312C16.4034 2.7421 14.4433 1.25 12.1328 1.25V2.75ZM15.6852 5.29486C15.8131 5.67212 15.8828 6.07715 15.8828 6.5H17.3828C17.3828 5.91118 17.2856 5.34352 17.1057 4.81312L15.6852 5.29486ZM5.88281 18V14.584H4.38281V18H5.88281ZM5.43309 13.8967C3.9305 13.2402 2.88281 11.7416 2.88281 10H1.38281C1.38281 12.359 2.80331 14.3846 4.83253 15.2712L5.43309 13.8967ZM18.3828 14.584V18H19.8828V14.584H18.3828ZM21.3828 10C21.3828 11.7416 20.3351 13.2402 18.8325 13.8967L19.4331 15.2712C21.4623 14.3846 22.8828 12.359 22.8828 10H21.3828ZM15.8828 6.5V7H17.3828V6.5H15.8828ZM6.88281 6.5V7H8.38281V6.5H6.88281ZM15.1328 21.25H14.1328V22.75H15.1328V21.25ZM10.1328 21.25H9.13281V22.75H10.1328V21.25Z" fill="#E7D393"/>
<path d="M5.13281 18H13.1328M19.1328 18H17.1328" stroke="#E7D393" stroke-width="1.5" stroke-linecap="round" stroke-linejoin="round"/>
</svg>
