<svg width="25" height="25" viewBox="0 0 25 25" fill="none" xmlns="http://www.w3.org/2000/svg">
<path d="M3.01758 14.3463V10.3463C3.01758 6.57507 3.01758 4.68946 4.18915 3.51788C5.36073 2.34631 7.24634 2.34631 11.0176 2.34631H13.0176C16.7888 2.34631 18.6745 2.34631 19.846 3.51788C20.4992 4.17107 20.7882 5.0462 20.9161 6.34631M21.0176 10.3463V14.3463C21.0176 18.1175 21.0176 20.0032 19.846 21.1747C18.6745 22.3463 16.7888 22.3463 13.0176 22.3463H11.0176C7.24634 22.3463 5.36073 22.3463 4.18915 21.1747C3.53597 20.5215 3.24695 19.6464 3.11907 18.3463" stroke="#E7D393" stroke-width="1.5" stroke-linecap="round"/>
<path d="M8.01758 14.3463H13.0176" stroke="#E7D393" stroke-width="1.5" stroke-linecap="round"/>
<path d="M8.01758 10.3463H9.01758M16.0176 10.3463H12.0176" stroke="#E7D393" stroke-width="1.5" stroke-linecap="round"/>
</svg>
