<svg width="14" height="14" viewBox="0 0 14 14" fill="none" xmlns="http://www.w3.org/2000/svg">
<path d="M4.26895 12.8413C2.8866 12.6872 1.77424 11.5748 1.62627 10.1918C1.51704 9.17083 1.4248 8.12265 1.4248 7.05402C1.4248 5.98539 1.51704 4.9372 1.62627 3.91623C1.77424 2.53321 2.8866 1.42084 4.26895 1.26676C5.29572 1.15231 6.34995 1.05402 7.4248 1.05402C8.49965 1.05402 9.55388 1.15231 10.5806 1.26676C11.963 1.42084 13.0754 2.53321 13.2233 3.91623C13.3326 4.9372 13.4248 5.98539 13.4248 7.05402C13.4248 8.12265 13.3326 9.17083 13.2233 10.1918C13.0754 11.5748 11.963 12.6872 10.5806 12.8413C10.0166 12.9041 9.44428 12.9621 8.8648 13.0016V9.93402H10.7848V7.53402H8.8648V6.57402C8.8648 6.04382 9.29461 5.61402 9.8248 5.61402H10.7848V4.17402C10.7848 3.64382 10.355 3.21402 9.8248 3.21402H9.3448C7.75422 3.21402 6.4648 4.50344 6.4648 6.09402V7.53402H4.5448V9.93402H6.4648V13.0298C5.72094 12.9937 4.98821 12.9214 4.26895 12.8413Z" stroke="white" stroke-linecap="round" stroke-linejoin="round"/>
</svg>
