<svg width="25" height="25" viewBox="0 0 25 25" fill="none" xmlns="http://www.w3.org/2000/svg">
<path d="M12.0586 6.84194L11.552 7.32954C11.6845 7.46725 11.8674 7.54507 12.0586 7.54507C12.2498 7.54507 12.4327 7.46725 12.5652 7.32954L12.0586 6.84194ZM7.37167 17.0797C7.07182 16.8329 6.62872 16.8759 6.38195 17.1757C6.13518 17.4757 6.1782 17.9187 6.47804 18.1655L7.37167 17.0797ZM3.00421 14.2583C3.19054 14.599 3.61778 14.7242 3.95848 14.5378C4.29919 14.3515 4.42432 13.9243 4.23798 13.5835L3.00421 14.2583ZM3.38672 10.2511C3.38672 8.23469 4.52613 6.54372 6.08143 5.83278C7.59241 5.14211 9.62265 5.32501 11.552 7.32954L12.5652 6.35435C10.2759 3.9759 7.61868 3.5839 5.49681 4.55381C3.41926 5.50347 1.98047 7.70856 1.98047 10.2511H3.38672ZM8.77493 19.9662C9.25514 20.3448 9.77066 20.7485 10.2931 21.0538C10.8154 21.359 11.4113 21.6069 12.0586 21.6069V20.2007C11.7683 20.2007 11.4268 20.0875 11.0026 19.8397C10.5786 19.5919 10.1387 19.2506 9.64552 18.8618L8.77493 19.9662ZM15.3423 19.9662C16.6797 18.9119 18.3893 17.7037 19.7304 16.1936C21.0956 14.6564 22.1367 12.7501 22.1367 10.2511H20.7305C20.7305 12.3112 19.8875 13.8991 18.6789 15.2599C17.4463 16.6478 15.8926 17.7417 14.4717 18.8618L15.3423 19.9662ZM22.1367 10.2511C22.1367 7.70856 20.6979 5.50347 18.6203 4.55381C16.4985 3.5839 13.8412 3.9759 11.552 6.35435L12.5652 7.32954C14.4945 5.32501 16.5248 5.14211 18.0357 5.83278C19.591 6.54372 20.7305 8.23469 20.7305 10.2511H22.1367ZM14.4717 18.8618C13.9785 19.2506 13.5386 19.5919 13.1146 19.8397C12.6904 20.0875 12.3488 20.2007 12.0586 20.2007V21.6069C12.7058 21.6069 13.3018 21.359 13.8241 21.0538C14.3466 20.7485 14.862 20.3448 15.3423 19.9662L14.4717 18.8618ZM9.64552 18.8618C8.89935 18.2737 8.14105 17.7129 7.37167 17.0797L6.47804 18.1655C7.25642 18.8062 8.07864 19.4173 8.77493 19.9662L9.64552 18.8618ZM4.23798 13.5835C3.71184 12.6216 3.38672 11.5319 3.38672 10.2511H1.98047C1.98047 11.7863 2.37417 13.1064 3.00421 14.2583L4.23798 13.5835Z" fill="#E7D393"/>
</svg>
