<svg width="24" height="25" viewBox="0 0 24 25" fill="none" xmlns="http://www.w3.org/2000/svg">
<path d="M11.9912 9.93488L15.9912 5.93488M11.9912 15.4349L14.9912 12.4349M18.4912 8.93488L16.8662 10.5599M11.9912 20.4349L13.8662 18.5599M19.4912 12.9349L15.7412 16.6849" stroke="#E7D393" stroke-width="1.5" stroke-linecap="round"/>
<path d="M11.9912 22.9349C16.4095 22.9349 19.9912 19.289 19.9912 14.7916C19.9912 10.3294 17.4379 5.12247 13.4541 3.26043C12.9898 3.0434 12.4905 2.93488 11.9912 2.93488M11.9912 22.9349C7.57293 22.9349 3.99121 19.289 3.99121 14.7916C3.99121 13.2056 4.31379 11.5255 4.90852 9.93488M11.9912 22.9349V2.93488M11.9912 2.93488C11.4919 2.93488 10.9926 3.0434 10.5283 3.26043C8.92726 4.00876 7.55727 5.29734 6.49121 6.86071" stroke="#E7D393" stroke-width="1.5" stroke-linecap="round"/>
</svg>
