<svg width="25" height="24" viewBox="0 0 25 24" fill="none" xmlns="http://www.w3.org/2000/svg">
<path d="M4.39061 7.24288C4.36979 6.85511 4.03857 6.55764 3.65081 6.57845C3.26304 6.59926 2.96557 6.93049 2.98638 7.31825L4.39061 7.24288ZM5.29609 3.64887C5.02866 3.93043 5.04011 4.37547 5.32166 4.64291C5.60322 4.91035 6.04826 4.8989 6.31571 4.61734L5.29609 3.64887ZM10.8708 19.324C11.1996 19.5307 11.6337 19.4317 11.8403 19.1029C12.0469 18.7741 11.9478 18.34 11.6191 18.1334L10.8708 19.324ZM15.0417 19.5548C14.6616 19.4752 14.289 19.7188 14.2094 20.0989C14.1298 20.4789 14.3733 20.8516 14.7535 20.9312L15.0417 19.5548ZM15.5401 15.3222L15.967 14.8727L14.9474 13.9043L14.5204 14.3538L15.5401 15.3222ZM17.372 14.6834L19.1631 15.7144L19.8647 14.4956L18.0736 13.4647L17.372 14.6834ZM19.5088 17.8518L18.1771 19.2539L19.1967 20.2223L20.5284 18.8202L19.5088 17.8518ZM8.71 15.7113C5.07612 11.8854 4.46658 8.65834 4.39061 7.24288L2.98638 7.31825C3.07943 9.0519 3.81553 12.6003 7.69038 16.6797L8.71 15.7113ZM9.99938 9.48899L10.2683 9.2059L9.24866 8.23744L8.97976 8.52053L9.99938 9.48899ZM10.4795 5.68136L9.29733 4.00934L8.14909 4.82119L9.33127 6.4932L10.4795 5.68136ZM9.48957 9.00476C8.97976 8.52053 8.97911 8.52121 8.97846 8.5219C8.97824 8.52214 8.97759 8.52283 8.97714 8.5233C8.97625 8.52426 8.97534 8.52522 8.97442 8.52622C8.97257 8.5282 8.97066 8.53028 8.9687 8.53244C8.96476 8.53676 8.96059 8.54144 8.9562 8.54649C8.94744 8.55657 8.9378 8.5681 8.9275 8.58113C8.90689 8.60717 8.88357 8.63917 8.85912 8.67739C8.81007 8.75404 8.75688 8.85498 8.71184 8.98156C8.62024 9.23897 8.57033 9.57985 8.6327 10.0055C8.75524 10.8419 9.30326 11.9666 10.7352 13.4741L11.7548 12.5057C10.4163 11.0965 10.0867 10.2287 10.0241 9.80167C9.99391 9.59565 10.0246 9.4871 10.0367 9.45301C10.0435 9.43385 10.048 9.42852 10.0436 9.43535C10.0415 9.43865 10.0373 9.44485 10.0302 9.45382C10.0266 9.4583 10.0224 9.46347 10.0173 9.46934C10.0147 9.47227 10.012 9.47537 10.009 9.47865C10.0075 9.48029 10.006 9.48197 10.0044 9.4837C10.0036 9.48456 10.0027 9.48543 10.0019 9.48631C10.0015 9.48675 10.0009 9.48743 10.0007 9.48764C10 9.48832 9.99938 9.48899 9.48957 9.00476ZM10.7352 13.4741C12.1628 14.9772 13.2411 15.5681 14.0638 15.7017C14.4858 15.7703 14.8276 15.7155 15.0863 15.6135C15.2128 15.5636 15.3129 15.505 15.388 15.4518C15.4254 15.4252 15.4566 15.3999 15.4818 15.3779C15.4944 15.3668 15.5056 15.3565 15.5152 15.3472C15.5201 15.3426 15.5245 15.3381 15.5286 15.3339C15.5307 15.3319 15.5327 15.3298 15.5346 15.3278C15.5356 15.3269 15.5365 15.326 15.5373 15.325C15.5378 15.3246 15.5385 15.3238 15.5387 15.3236C15.5394 15.3229 15.5401 15.3222 15.0302 14.838C14.5204 14.3538 14.5211 14.3531 14.5217 14.3525C14.5219 14.3522 14.5225 14.3515 14.523 14.3511C14.5238 14.3502 14.5247 14.3494 14.5254 14.3485C14.5271 14.3468 14.5287 14.3452 14.5303 14.3436C14.5334 14.3405 14.5364 14.3375 14.5392 14.3348C14.5449 14.3293 14.55 14.3246 14.5545 14.3207C14.5635 14.3128 14.5701 14.3078 14.5744 14.3047C14.5832 14.2985 14.5823 14.3006 14.5703 14.3053C14.5522 14.3124 14.4671 14.3425 14.2892 14.3137C13.9118 14.2523 13.0974 13.9193 11.7548 12.5057L10.7352 13.4741ZM9.29733 4.00934C8.34709 2.66536 6.44563 2.43862 5.29609 3.64887L6.31571 4.61734C6.80586 4.10129 7.66876 4.14183 8.14909 4.82119L9.29733 4.00934ZM18.1771 19.2539C17.9154 19.5293 17.6417 19.6769 17.3757 19.7032L17.5139 21.1027C18.2142 21.0335 18.781 20.66 19.1967 20.2223L18.1771 19.2539ZM10.2683 9.2059C11.1753 8.25089 11.2396 6.75636 10.4795 5.68136L9.33127 6.4932C9.72703 7.05295 9.66634 7.79769 9.24866 8.23744L10.2683 9.2059ZM19.1631 15.7144C19.9327 16.1573 20.0833 17.247 19.5088 17.8518L20.5284 18.8202C21.7518 17.5322 21.3955 15.3768 19.8647 14.4956L19.1631 15.7144ZM15.967 14.8727C16.3283 14.4923 16.8914 14.4068 17.372 14.6834L18.0736 13.4647C17.0437 12.8719 15.7666 13.0418 14.9474 13.9043L15.967 14.8727ZM11.6191 18.1334C10.6968 17.5538 9.71527 16.7696 8.71 15.7113L7.69038 16.6797C8.77228 17.8188 9.84416 18.6788 10.8708 19.324L11.6191 18.1334ZM17.3757 19.7032C16.8633 19.7538 16.0525 19.7664 15.0417 19.5548L14.7535 20.9312C15.924 21.1763 16.8803 21.1652 17.5139 21.1027L17.3757 19.7032Z" fill="#E7D393"/>
</svg>
